PathFileType	4	(X/Y/Z)	 s05c0203.trc
DataRate	CameraRate	NumFrames	NumMarkers	Units	OrigDataRate	OrigDataStartFrame	OrigNumFrames
200	200	6	47	mm	200	1001	2000
Frame#	Time	racr			lacr			c7			jug			rlel			rdr			llel			ldr			s2			lic			ric			lasi			rasi			rpsi			lpsi			rgt			lgt			rth1			rth2			rth3			rth4			rlfc			rsh1			rsh2			rsh3			rsh4			rlmal			rcal			rtoe			rmt5			lth1			lth2			lth4			lth3			llfc			lmfc			lsh1			lsh2			lsh3			lsh4			llmal			lcal			ltoe			lmt5			SBIKE			LBIKE			RBIKE			
		X1	Y1	Z1	X2	Y2	Z2	X3	Y3	Z3	X4	Y4	Z4	X5	Y5	Z5	X6	Y6	Z6	X7	Y7	Z7	X8	Y8	Z8	X9	Y9	Z9	X10	Y10	Z10	X11	Y11	Z11	X12	Y12	Z12	X13	Y13	Z13	X14	Y14	Z14	X15	Y15	Z15	X16	Y16	Z16	X17	Y17	Z17	X18	Y18	Z18	X19	Y19	Z19	X20	Y20	Z20	X21	Y21	Z21	X22	Y22	Z22	X23	Y23	Z23	X24	Y24	Z24	X25	Y25	Z25	X26	Y26	Z26	X27	Y27	Z27	X28	Y28	Z28	X29	Y29	Z29	X30	Y30	Z30	X31	Y31	Z31	X32	Y32	Z32	X33	Y33	Z33	X34	Y34	Z34	X35	Y35	Z35	X36	Y36	Z36	X37	Y37	Z37	X38	Y38	Z38	X39	Y39	Z39	X40	Y40	Z40	X41	Y41	Z41	X42	Y42	Z42	X43	Y43	Z43	X44	Y44	Z44	X45	Y45	Z45	X46	Y46	Z46	X47	Y47	Z47	
1001	5.0050	509.835650	1280.359708	-174.342903	509.135677	1248.507308	-432.191282	483.391095	1347.369958	-317.197519	420.279207	1196.802734	-290.172380	504.518693	1108.045327	54.970621	672.353703	960.929426	-28.067363	470.639007	1028.325796	-634.793597	666.709783	973.861933	-475.451814	-93.967621	1189.198487	-245.397803	31.948900	1200.904733	-394.721413	68.602332	1202.035182	-114.158598	78.970808	1152.420385	-356.340655	100.233601	1137.497181	-145.989740	-55.424322	1235.630969	-203.294545	-63.028567	1241.662009	-288.982823	-1.035468	1061.016376	-89.836151	-8.630417	1123.584605	-426.290796	53.232335	954.073055	-77.508390	105.169224	881.639967	-75.250330	113.853487	793.912714	-82.369315	138.885588	894.838752	-81.529637	177.830521	656.084123	-103.506133	120.255035	564.465464	-78.134825	116.454838	476.488293	-91.708063	72.746783	402.726905	-97.414981	146.236612	471.029806	-115.068825	45.331760	268.300256	-108.320255	-26.063428	249.486890	-158.252529	257.394047	162.382594	-146.770529	151.402405	160.269897	-85.292559	115.561464	1066.742945	-429.221655	201.293947	1072.602713	-418.879198	207.260905	1103.881345	-397.681256	281.412117	1030.846951	-415.947330	414.306294	967.676120	-375.350823	394.979328	944.478205	-264.826762	338.925754	875.418288	-403.836553	308.521921	793.473303	-404.271004	239.691563	737.504530	-411.367054	335.121248	774.394010	-384.966797	174.956085	623.559838	-419.994316	102.023457	602.603653	-383.907665	372.454184	487.014945	-387.342679	263.754882	500.444154	-451.720334	-258.295902	895.678677	-279.409276	-43.487846	85.357249	-474.632459	-51.839494	80.197278	-77.147414	
1002	5.0100	510.622159	1279.046555	-175.526083	508.183646	1248.330789	-433.717015	483.351154	1346.892730	-318.118584	420.101399	1196.337354	-291.405929	505.063022	1108.408593	54.999734	672.212384	960.405678	-26.944315	469.756873	1027.430532	-635.566588	666.309442	973.617726	-476.080831	-94.166404	1190.326291	-244.873456	31.266347	1202.407364	-394.284887	68.579227	1201.886297	-113.850526	78.187482	1153.048282	-356.666544	100.098335	1137.544804	-145.779183	-55.251234	1236.342067	-202.584968	-63.170004	1242.876307	-288.126026	-0.722047	1061.140063	-89.763205	-9.713061	1124.680261	-425.590683	56.015932	954.652568	-78.096903	109.749434	883.563159	-76.390905	120.429584	796.009261	-83.027248	143.038908	897.588527	-83.642822	185.387677	659.150768	-103.666914	124.997946	569.311041	-78.504644	118.329266	481.451640	-92.270110	72.224089	409.258316	-98.328787	147.976422	475.046577	-115.551416	40.223205	275.997185	-109.120072	-31.504206	259.705109	-159.855612	248.713353	162.745350	-146.277030	142.223248	164.418778	-85.795123	114.291232	1066.158603	-430.073595	200.193153	1070.975051	-420.266998	206.641706	1102.049236	-398.794504	279.788000	1028.316713	-418.277818	411.643061	963.011209	-377.616210	393.245816	939.767576	-267.391172	336.241431	869.433933	-405.711620	307.402601	786.928769	-405.958404	239.788284	729.762580	-412.726773	334.304414	768.328816	-386.365988	177.144312	614.468195	-420.444616	104.972224	589.596844	-383.909214	380.878393	488.695466	-387.905001	271.571971	495.841689	-452.392757	-258.303148	895.754003	-279.700257	-43.483426	85.323713	-474.647856	-51.840191	80.228032	-77.172845	
1003	5.0150	511.276675	1277.686367	-176.690241	508.391360	1248.448066	-435.109956	483.279625	1346.364831	-318.095784	420.939943	1195.246556	-292.500616	505.855310	1108.589158	55.184867	672.060203	959.866933	-26.025933	468.906275	1026.706856	-636.196330	665.765122	973.292994	-476.460068	-94.493185	1191.182130	-244.257071	30.643347	1203.740027	-394.017582	68.532216	1201.728569	-113.570363	77.092402	1153.463183	-356.706859	100.152044	1137.500625	-145.373990	-55.128683	1237.194539	-201.949883	-62.831638	1243.710004	-287.482405	-0.194096	1061.312857	-89.710443	-10.739620	1125.405860	-424.894447	59.459190	955.489154	-78.492645	115.156413	885.823032	-77.528455	127.986082	798.600713	-83.519416	147.870708	900.768134	-85.784615	193.709854	662.805052	-103.786896	130.689361	574.548196	-78.841132	121.134578	487.041943	-92.680907	72.747482	416.335499	-98.895926	150.581309	479.660332	-115.992029	35.922897	284.598743	-109.725614	-35.991888	271.063523	-161.121219	240.157357	163.230322	-145.768025	133.399786	169.327254	-86.203762	112.855400	1065.151627	-431.011950	198.869707	1068.764511	-421.684396	205.863224	1099.569706	-400.157712	277.907252	1024.845577	-420.161630	408.715832	957.275451	-379.952666	390.452502	933.815440	-269.600016	333.448905	862.373252	-407.685651	306.184188	779.323973	-407.851534	239.758923	720.858447	-414.466621	333.735784	760.846626	-388.177259	179.441576	604.205387	-420.965422	108.283223	576.176831	-384.253159	388.880610	489.515956	-388.402268	279.254481	490.496637	-453.030668	-258.385385	895.802320	-280.055916	-43.475552	85.272238	-474.704487	-51.821626	80.238181	-77.218727	
1004	5.0200	511.877628	1276.489600	-177.616503	507.672380	1248.431738	-436.232987	483.112134	1346.219047	-318.685868	420.782667	1195.000497	-293.723226	506.232505	1108.427857	55.075360	671.897303	959.247990	-25.215668	468.017009	1026.167762	-636.648547	665.113188	972.892319	-476.594764	-94.788106	1191.967130	-243.742445	29.886075	1204.766597	-393.734435	68.526371	1201.494204	-113.357674	76.266734	1153.631337	-357.093127	100.240769	1137.406002	-145.028044	-55.044089	1237.787768	-201.373876	-62.758306	1244.392152	-286.795104	0.544807	1061.488611	-89.660032	-11.941718	1125.775139	-424.362745	63.246397	956.457068	-78.986553	121.176716	888.486836	-78.646118	136.314564	801.658109	-84.192359	153.219528	904.216313	-87.941046	202.645524	666.933225	-103.907518	137.181784	580.188486	-79.139263	124.715650	493.094654	-93.224967	74.205769	423.958196	-99.171170	153.822427	484.893290	-116.817476	32.533905	294.130071	-110.067174	-39.779190	283.188080	-161.633578	231.785237	164.312900	-145.931247	125.424120	174.969651	-86.585390	111.329207	1063.590985	-432.024015	197.450649	1065.734638	-423.051504	205.019342	1096.500505	-401.643366	275.691818	1020.544771	-421.877387	405.328428	950.833875	-382.565081	387.667830	927.181155	-272.381902	330.638611	854.259320	-409.888185	305.005574	770.662371	-409.731109	239.713216	710.914783	-415.979971	332.996357	753.012262	-390.361057	182.076474	593.154157	-421.527316	111.910436	562.057156	-384.557759	396.317703	489.374401	-389.116860	286.686601	484.465170	-453.748326	-258.296550	895.749337	-280.034318	-43.459744	85.234046	-474.761599	-51.814695	80.228677	-77.271011	
1005	5.0250	512.420996	1275.369576	-178.442277	506.991058	1248.551750	-436.972724	482.936968	1346.175218	-319.171814	420.601200	1194.858937	-294.885060	506.973502	1108.109726	55.394216	671.711889	958.663163	-24.639330	467.074340	1025.900280	-636.883161	664.337298	972.415207	-476.634605	-95.091423	1192.469741	-243.256565	29.085510	1205.248761	-393.421323	68.516080	1201.236543	-113.232754	75.602978	1153.550301	-357.684242	100.250723	1137.324181	-144.813955	-54.970708	1238.216685	-200.825858	-62.906607	1244.786779	-286.289949	1.416911	1061.614349	-89.674284	-13.240181	1125.799272	-423.794640	67.742086	957.645528	-79.119202	127.644598	891.563669	-79.726562	145.157481	805.160950	-84.791661	158.938354	908.187584	-90.122971	211.987875	671.407725	-104.198455	144.241736	586.114130	-79.450313	129.025844	499.571617	-93.619346	76.427913	432.121074	-99.050756	157.631304	490.415929	-117.456793	29.974282	304.179562	-109.737511	-42.828605	295.938389	-161.648350	223.366771	165.172825	-146.791046	117.908684	181.049963	-87.044109	109.619666	1061.555259	-433.047715	195.615770	1061.916998	-424.017336	204.123738	1092.952572	-403.232442	273.216877	1015.510583	-423.598232	401.610390	943.552259	-385.227110	384.505123	920.017997	-275.258078	327.751767	845.245382	-412.285745	303.988791	761.157141	-411.800505	239.880596	699.855188	-417.389930	332.385657	744.279905	-392.357772	185.087135	581.265790	-421.987793	116.055054	547.441574	-384.362509	403.415326	488.135645	-390.327914	293.819004	477.556713	-454.555195	-258.351278	895.756570	-280.438690	-43.461186	85.157308	-474.792377	-51.815051	80.275623	-77.288085	
1006	5.0300	512.825315	1274.565490	-179.165066	506.440588	1248.783217	-437.534927	482.727620	1346.170751	-319.454291	420.524353	1194.717348	-295.749888	507.205567	1107.555666	55.450767	671.811383	958.189014	-24.422395	466.112824	1025.868182	-636.768473	663.444128	971.958626	-476.560049	-95.365226	1192.563416	-242.714197	28.280160	1205.528362	-393.174125	68.543164	1200.819525	-113.183761	74.993630	1153.217636	-358.339096	100.332765	1137.120197	-144.616725	-54.550931	1237.842478	-199.572518	-63.167499	1245.120807	-285.663459	2.548981	1061.638232	-89.431849	-14.727470	1125.412439	-423.114012	72.628285	959.387082	-79.105140	134.305738	894.963355	-80.803588	154.177487	809.087277	-85.310950	164.880145	912.415811	-92.142635	221.622159	676.019495	-104.714708	151.723633	592.256568	-79.913485	133.778302	506.281167	-94.020229	79.141939	440.257455	-99.117349	161.920148	496.247087	-118.058931	27.954494	314.479672	-109.064219	-45.068381	309.239264	-161.315563	215.218207	167.052321	-146.977173	110.644212	187.526611	-87.175851	107.757002	1059.055398	-434.104718	193.770876	1057.729595	-425.542672	202.953804	1088.713062	-405.159990	270.485333	1009.878984	-425.448163	397.752726	935.604059	-387.999916	381.056628	912.431460	-278.309029	324.963268	835.550674	-414.629137	303.209933	750.889528	-413.689235	240.527847	688.066294	-418.735776	331.925937	734.812346	-394.067056	188.297777	568.888051	-422.307496	120.565604	532.597733	-383.772936	410.280560	485.775232	-392.136367	300.692236	469.844131	-455.417671	-258.330349	895.784753	-280.816888	-43.508621	85.156447	-474.881577	-51.809348	80.245018	-77.332091	
